<svg width="167" height="168" viewBox="0 0 167 168" fill="none" xmlns="http://www.w3.org/2000/svg">
<path d="M111.793 59.7C113.694 73.6875 110.041 89.325 98.4107 97.4625C90.098 103.275 78.7286 102.75 72.0188 99.6C58.1891 93.1125 53.5667 77.625 54.5732 63.15C56.1761 40.3125 69.8194 30.1875 82.6426 30.3375C100.125 30.2625 109.407 42.2625 111.793 59.7ZM167 21V147C167 158.587 157.644 168 146.125 168H20.875C9.35647 168 0 158.587 0 147V21C0 9.4125 9.35647 0 20.875 0H146.125C157.644 0 167 9.4125 167 21ZM123.013 105.45C123.013 105.45 122.976 92.7 122.976 23.9625H112.166V39.075C111.868 39.1875 111.719 38.8875 111.569 38.625C107.991 30.8625 98.1871 21.2625 83.2391 21.375C63.8924 21.525 50.7337 33.075 45.7386 50.55C44.1357 56.1375 43.5766 61.8375 43.6884 67.65C44.3221 96.8625 60.5002 111.825 85.5875 110.85C96.3605 110.438 105.903 104.475 111.308 93.9C111.495 93.525 111.719 93.1875 111.942 92.8125C112.017 92.85 112.091 92.85 112.166 92.8875C112.278 94.3125 112.24 104.4 112.203 105.825C112.129 111.375 111.458 116.888 109.519 122.138C106.612 130.013 101.206 135.15 92.931 136.95C86.2958 138.413 79.6605 138.375 73.0998 136.5C65.0853 134.212 59.4938 129.375 57.779 120.825C57.6672 120.225 57.2944 120.337 56.9217 120.337H46.9315C47.2297 124.312 48.1243 127.95 50.1 131.288C59.121 146.475 80.9279 149.475 97.8888 145.312C116.49 140.7 122.976 124.725 123.013 105.45Z" fill="#9A031E"/>
</svg>
